<svg viewBox="0 0 512 512" xmlns="http://www.w3.org/2000/svg">
<g data-name="Layer_1">
<circle cx="256" cy="256" r="256" fill="#197492"/>
<path d="m399.9 325.3c-2.122 0.3043-4.26 0.5244-6.363 0.9278-8.037 1.542-14.04-1.94-19.83-7.12-9.498-8.507-19.48-16.46-29.11-24.84-3.177-2.763-5.772-1.13-8.304 0.477-8.047 5.107-15.98 10.4-23.95 15.63-3.457 2.265-6.911 4.535-10.37 6.803-4.172 2.738-8.66 3.613-13.35 1.725-3.957-1.592-6.992-0.6318-9.148 2.847-2.3 3.713-6.308 5.766-9.371 9.785 15.52-3.633 30.43-6.548 45.42-9.118 6.269-1.075 9.646 0.9375 10.78 7.144 2.873 15.68 6.05 31.31 8.32 47.08 0.8662 6.016 4.908 7.841 8.964 10.34 4.666 3.883 8 8.485 8.025 14.88-0.3347 0.4839-0.7733 0.8334-1.314 1.063-6.677 0.6161-12.57-1.169-17.56-5.728-5.157-2.178-8.011-5.524-8.928-11.57-2.281-15.04-5.599-29.92-8.288-44.9-0.6622-3.691-1.984-4.533-5.711-3.718-11.55 2.527-23.16 4.779-34.81 6.799-5.842 1.013-12.18 3.297-16.66-3.374-0.9664-1.437-2.304-0.0795-3.362 0.4057-3.083 1.413-6.128 2.912-9.926 4.732 3.525 3.406 6.918 6.586 10.2 9.877 4.954 4.968 5.419 8.217 1.472 14.37-6.308 9.831-12.7 19.62-19.4 29.18-3.33 4.754-5.223 9.022-2.054 14.77 2.316 4.201 3.86 8.933 5.089 13.6 1.556 5.914 4.803 10.16 10.19 12.87 3.032 3.336 3.474 7.8 5.05 11.76 0.741 1.863 0.8085 4.02-0.9238 5.481-1.673 1.411-3.758 1.184-5.618 0.357-4.465-1.985-8.389-4.756-11.54-8.538-6.985-5.895-7.638-14.88-10.59-22.6-8.498-22.27-8.26-22.39 4.801-43.16 3.34-5.312 6.954-10.45 10.4-15.7 1.801-2.747-1.947-9.595-5.281-9.7-1.638-0.0514-1.288 1.335-1.58 2.278-4.288 13.85-11.47 25.81-22.4 35.56-7.353 6.558-15.24 12.04-24.82 14.58-3.235 0.8553-3.444 1.902-1.578 4.234 3.024 3.779 5.882 7.703 9.082 11.33 1.969 2.229 3.06 4.733 3.834 7.485 2.706 3.289 1.854 7.147 1.349 10.75-0.5614 4.001-3.508 4.937-6.502 2.159-3.284-3.048-5.917-6.651-7.327-11.01-3.335-7.775-10.13-12.95-14.96-19.62-1.509-2.09-5.042-1.095-7.643-0.331-1.008 0.2959-2.081 1.562-2.834 1.351-6.933-1.944-10.92 3.28-16.14 5.953-10.78 5.517-24.51 3.207-31.27-7.02-2.733-4.135-7.45-4.699-11.29-5.59-13.7-3.183-21.47-16.39-15.66-32.11 1.579-4.276 0.7897-6.188-2.909-8.449-8.555-5.229-11.43-14.15-13.15-23.23-3.247-17.08 5.183-33.01 20.91-40.42 2.246-1.058 5.196-2.084 7.136-2.132 6.726-0.1656 8.632-3.188 11.93-7.196 6.03-7.323 14.01-12.33 22.86-15.76 2.938-1.138 3.989-2.13 3.53-5.782-3.037-24.19 2.688-41.65 24.76-55.86 4.577-2.948 9.999-3.839 15.36-4.554 1.332-0.1778 3.265 0.1056 2.82-2.17-0.396-2.025-1.763-1.883-3.262-1.009-3.376 1.968-5.165-0.4144-6.367-2.815-1.282-2.559-0.3919-5.136 2.186-6.465 4.47-2.304 9.079-4.346 13.68-6.39 2.377-1.057 4.242 0.0248 5.552 1.991 1.33 1.995 1.328 3.998-0.3604 5.935-1.072 1.229-3.438 2.085-1.957 4.348 0.8829 1.349 0.9893 4.586 3.059 3.527 2.397-1.226 5.841-2.294 5.732-6.339-0.106-3.945-0.2878-7.978 0.3716-11.84 1.482-8.67 7.005-14.93 13.84-19.84 9.622-6.913 19.77-13.08 28.93-20.65 2.185 1.832 4.664 3.438 5.09 6.621 0.4103 2.649 2.69 3.546 4.553 4.832 10.16 7.708 16.27 18.1 19.31 30.26 0.9865 3.942 2.051 3.408 4.889 1.818 12.01-6.732 19.73-17.39 27.24-28.44 5.234-7.699 11.07-15.02 17.68-21.65 3.001-0.6102 4.944 0.9803 5.984 3.443 1.029 2.435-1.275 3.802-2.384 5.594-1.464 2.367-6.32 2.119-5.01 6.539-0.257 2.342-2.129 3.696-3.359 5.434-14.18 20.02-27.32 40.7-39.8 61.83-6.783 11.48-13.17 23.2-20.01 34.29 1.299-1.392 2.46-3.511 5.038-3.727 3.869 1.8 3.744 4.226 1.24 7.192-1.59 1.883-3.938 3.138-4.71 5.632 0.6135 0.0956 1.11-0.1368 1.587-0.3808 24.16-12.36 48.24-24.87 72.29-37.43 18.14-9.474 34.85-20.78 50.53-34.87-2.803 0.8945-5.162 1.052-7.525 0.4891-1.372-0.42-2.792-0.4082-4.198-0.5311-1.57-0.1372-3.332-0.0868-4.153-1.777-1.13-2.325 2.053-2.135 2.311-3.701 3.873-2.717 8.481-2.286 12.79-2.628 4.533-0.3599 8.816-1.11 12.82-3.254 3.447-0.6531 6.243 0.2146 7.999 3.472-2.819 3.016-5.488 6.194-8.506 8.997-2.352 2.184-2.168 3.398 0.3835 5.291 11.93 8.854 20.66 20.33 27.27 33.58 2.46 4.93 2.436 8.228-1.851 12.61-16.96 17.34-36.72 29.88-60.34 37.33 8.98 7.608 17.59 14.86 26.15 22.18 2.251 1.926 4.77 1.322 7.205 0.9666 2.644-0.3861 5.234-1.141 7.848-1.735 5.81 0.0394 9.898 3.76 14.13 6.917 2.056 1.532 1.985 4.282-0.5547 5.253-4.38 1.676-8.815 4.352-13.82 1.848z" fill="#083850"/>
<path d="m402 192.1c-2.167-1.089-4.333-2.178-6.5-3.267-0.0737-3.88 3.005-5.925 5.071-8.502 11.35-14.16 21.08-29.19 26.64-46.68 1.748-5.507 1.714-10.99 1.439-16.57-0.0778-1.577-0.2189-3.509-2.023-4.108-1.63-0.541-2.521 1.086-3.507 2.054-6.044 5.93-12.39 11.57-18.38 17.52-13.43 13.33-27.29 26.23-40.96 39.3-10.67 10.2-20.85 20.93-32.25 30.81 10.27-3.444 20.5-6.379 31.04-8.032 1.934-0.3032 3.913-0.9796 5.64 0.6191-0.4788 1.698-2.198 3.927 1.808 3.418 1.626-0.2068 3.486-0.55 4.931 0.8477-2.243 2.217-5.274 1.999-8.035 2.537-13.99 2.727-27.63 6.486-40.8 12.12-12.48 5.337-21.77 14.68-31.12 23.8-11.21 10.93-22.72 21.55-33.89 32.53-1.763 1.733-3.512 3.643-6.177 4.081 0.2264-3.892 3.619-5.501 5.931-7.717 2.447-2.346 2.705-4.23 0.4212-6.587-0.5826-2.215 1.113-3.241 2.381-4.436 14.54-13.71 29.43-27.07 43.24-41.52 11.5-12.03 18.52-26.92 24.72-42.16 3.794-9.32 6.179-19.07 8.398-29.09-6.302 4.425-11.11 10.04-16.42 15.12-1.528 1.463-2.762 3.408-5.178 3.63-2.186-1.57-2.42-3.095 0.3208-4.171 1.174-0.4608 2.221-0.9524 3.185-1.782 5.482-4.716 5.406-5.575-0.9696-9.218-3.441-4.537-5.65-10.07-10.75-13.26-8.03-5.488-15.85-4.354-23.64 0.5948-11.51 7.315-22.37 15.58-33.71 23.14-1.989 1.326-3.805 3.483-6.711 2.535-0.6087-2.761-4.454-3.381-4.369-6.602 6.557-15.31 15.77-29.1 25.92-42.07 11.85-15.14 24.7-29.55 41.19-40.07 5.486-3.501 11.25-6.192 17.66-7.686 17.49-4.081 25.87 6.191 26.7 21.88 0.3397 6.46 0.3582 12.97-1.075 19.34-1.414 6.278-3.089 12.5-4.77 19.23 2.28-0.1766 3.588-1.502 5.105-2.589 14.23-10.19 28.95-19.51 46.25-23.65 9.382-2.246 18.79-3.199 27.79 1.874 7.04 3.967 10.57 9.999 11.21 17.9 0.8198 10.1-1.35 19.68-5.418 28.82-7.573 17.01-17.42 32.57-30.34 46.08z" fill="#073248"/>
<path d="m399.9 325.3c4.043-0.7431 8.101-1.415 12.12-2.282 0.96-0.2072 2.246-0.8793 2.56-1.666 0.5456-1.368-0.802-2.34-1.822-2.943-4.159-2.457-8.404-4.767-12.61-7.13 5.736-2.668 11.94-1.466 17.9-1.905 11.85-0.8732 23.77-0.8122 35.65-1.333 4.093-0.1793 5.988 0.4515 4.801 5.329-2.255 9.262-3.904 18.67-5.79 28.02-0.5625 2.788-1.424 4.559-4.975 3.233-15.36-5.735-30.79-11.27-46.18-16.9-1.074-0.3926-2.738-0.5173-1.643-2.432z" fill="#f5b33b"/>
<path d="m186.9 435.5c2.729 3.304 5.427 6.634 8.207 9.894 0.7892 0.9257 1.763 2.107 3.134 1.581 1.303-0.5008 1.481-1.897 1.443-3.205-0.0988-3.392-0.2016-6.783-0.3031-10.17 1.322-0.1777 1.926 0.8021 2.509 1.667 8.747 12.97 17.48 25.96 26.19 38.96 0.136 0.203 0.2558 0.4169 0.3733 0.6529 0.5889 1.183-0.2081 2.592-1.523 2.719-5.18 0.5006-10.12 1.097-15.08 1.181-4.634 0.0786-10.04 2.888-13.65 0.1598-3.551-2.686-2.972-8.569-4.205-13.04-2.767-10.03-5.794-20.01-7.094-30.39z" fill="#f5b33b"/>
<path d="m351 401.8c-0.9968-5.673-4.566-10.06-7.404-14.81 1.619-2.016 3.004-0.0732 4.166 0.4934 15.02 7.329 29.94 14.88 44.99 22.16 3.521 1.702 3.515 3.019 1.062 5.766-6.819 7.639-13.4 15.49-20.06 23.27-1.55 1.811-3.008 3.142-5.184 0.6581-11.61-13.24-23.27-26.44-34.87-39.69-0.5414-0.6184-0.6471-1.618-0.9554-2.44 5.984 1.804 11.49 5.465 18.14 4.7l0.1153-0.1034z" fill="#f5b33b"/>
<path d="m237.5 449.3c3.839 2.352 7.671 4.717 11.52 7.049 1.578 0.9559 3.436 1.876 5.042 0.6815 1.792-1.333 0.682-3.279 0.1586-4.968-1.223-3.945-2.455-7.886-3.685-11.83 14.62 12.5 29.22 25.03 43.89 37.47 3.084 2.615 2.673 3.832-1.031 5.282-9.041 3.538-17.95 7.418-26.89 11.21-2.486 1.053-4.716 1.853-6.319-1.386-7.256-14.66-15.99-28.55-22.68-43.5z" fill="#f5b33b"/>
<path d="m368.2 195.2c-13.96 1.302-27.25 5.461-40.7 9.48 15.09-14.43 30.17-28.86 45.27-43.28 16.95-16.19 34.05-32.24 50.79-48.65 4.028-3.948 5.226-1.86 6.077 1.744 1.34 5.676 1.155 11.4-0.4139 17.09-5.292 19.18-16.17 35.19-28.41 50.44-1.797 2.239-3.555 4.51-5.331 6.765-2.71 3.338-6.52 3.844-10.45 4.123-5.657 0.4013-11.34 0.6524-16.83 2.281z" fill="#fefefe"/>
<path d="m311 132.5c5.173 3.409 8.73 7.959 9.981 14.14-2.477 5.482-7.053 9.43-10.73 13.96-5.683 7.001-10.7 14.41-15.76 21.82-5.47 8.004-14.14 11.97-21.67 17.37-2.308 1.656-2.503-0.2273-2.813-2.016-2.314-13.32-9.197-23.94-19.42-32.56 4.297-4.383 9.625-7.406 14.56-10.93 9.061-6.476 18.3-12.7 27.51-18.97 5.664-3.852 11.7-5.354 18.35-2.812z" fill="#197390"/>
<path d="m318.4 161.8c7.294-7.415 14.58-14.84 23.32-22.31-0.792 8.167-2.87 15.12-4.972 21.98-5.204 16.98-13.18 32.66-23.31 47.24-4.99 7.183-11.85 12.57-18 18.63-11.26 11.1-22.77 21.95-34.18 32.91-2.079 2.481-4.157 4.963-6.236 7.444-0.5779-0.4682-1.156-0.9363-1.734-1.404 19.83-35.98 40.84-71.23 65.11-104.5z" fill="#fdfefd"/>
<path d="m254.9 274.6c15.33-14.66 31.07-28.93 45.87-44.11 13.11-13.44 29.3-20.39 46.74-25.4 8.979-2.578 18.21-4.018 27.41-5.561 2.846-0.1965 5.692-0.393 8.945-0.6175-1.527 3.212-4.307 4.882-6.603 6.941-13.87 12.44-29.54 22.15-46.06 30.62-24.25 12.43-48.42 24.99-72.67 37.42-1.011 0.5179-2.077 2.358-3.624 0.7z" fill="#fdfefd"/>
<path d="m237.5 174.8c9.809 7.298 15.52 17.17 18.11 28.97 1.057 4.802-0.0364 8.276-4.607 11.32-6.938 4.616-13.34 9.415-22.45 8.612-8.002-0.7051-10.59-1.931-13.46-9.308-1.156-2.974-3.13-5.139-5.634-6.947 1.59-17.54 13.73-26.03 28.04-32.64z" fill="#187390"/>
<path d="m157 271.8c-5.168-10.81 1.75-27.8 12.91-34.45 2.616-1.559 5.403-3.02 8.306-3.829 1.473-0.4105 4.042-2.552 5.028 0.3464 0.681 2.001 1.057 4.584-1.534 6.266-5.652 3.671-10.15 8.581-14.21 13.89-4.053 5.307-7.037 11.27-10.5 17.77z" fill="#1f728c"/>
<path d="m181.6 391.3c4.094-3.413 8.22-6.786 12.27-10.25 8.971-7.655 15.15-17.19 18.55-28.45 0.7202-2.386 1.987-2.784 3.926-2.359 2.052 0.4502 1.628 2.07 1.265 3.456-4.02 15.34-19.54 34.77-36.01 37.59z" fill="#24718a"/>
<path d="m134.9 418.1c4.638-16.74 2.025-24.65-14.84-25.19 3.643-4.426 8.25-4.384 12.78-3.469 4.422 0.892 8.896 7.057 9.427 12.09 0.9419 8.924-0.7926 13.06-7.366 16.57z" fill="#246d81"/>
<path d="m313.9 293.4c-6.63 4.294-12.13 7.847-17.62 11.42-0.8088 0.5273-1.623 0.8317-2.46 0.2397-1.095-0.7746-0.9339-1.798-0.3726-2.836 0.0848-0.1568 0.1261-0.3403 0.2253-0.4858 2.364-3.472 0.1671-10.07 5.782-10.84 4.151-0.5651 8.645 1.386 14.45 2.496z" fill="#20748d"/>
<path d="m109 391.2c-2.978 0.3899-4.962-0.3385-4.669-3.897 0.3465-4.203 1.917-7.813 5.103-10.58 0.489-0.4253 7.811 7.875 7.377 8.604-1.782 2.993-3.172 6.686-7.811 5.876z" fill="#1f7188"/>
<path d="m157.3 405.7c1.43 4.656-1.987 5.706-5.531 5.788-3.481 0.0805-4.057-2.716-4.108-5.664-0.0686-3.962 1.598-5.79 5.7-6.012 4.676-0.2519 4.161 2.65 3.938 5.887z" fill="#206c81"/>
<path d="m327.8 140.8c-7.898-22.7-33.67-25.88-48.87-13.16-6.67 5.583-14.29 10.03-21.83 14.67 3.077-7.507 7.779-13.93 12.43-20.34 12.2-16.85 25.83-32.33 43.3-44.01 5.415-3.62 11.19-6.472 17.67-7.652 7.088-1.29 12.42 1.996 14.26 9.054 2.496 9.544 0.7085 18.97-1.39 28.29-1.338 5.942-3.37 11.73-4.809 17.65-1.607 6.614-5.289 11.66-10.77 15.51z" fill="#fefefe"/>
<path d="m329.8 193.6c7.537-14.89 12.75-29.17 16.18-44.09 0.5634-2.452 1.441-4.956 1.358-7.409-0.2481-7.314 4.104-11.3 9.569-14.95 14.7-9.81 29.43-19.47 47.13-23.17 4.299-0.8989 8.61-1.02 12.89-0.1666 1.483 0.2961 3.688 0.0507 4.25 1.759 0.5918 1.798-1.466 2.685-2.554 3.73-13.65 13.12-27.35 26.17-41.05 39.24-15.39 14.69-30.77 29.38-46.16 44.06-0.1274 0.1217-0.305 0.1906-1.616 0.9862z" fill="#fdfefd"/>
<path d="m267.8 297.4c0.43 13.44-2.924 24.03-11.8 32.6-4.184 4.042-9.41 5.82-14.76 7.415-3.866 1.152-2.686-2.015-2.585-3.502 0.656-9.653-1.243-18.93-3.856-28.11-4.574-16.06-12.52-30.51-21.57-44.39-3.345-5.133-6.31-10.45-8.565-16.13-2.287-5.762-0.5015-8.39 5.691-8.791 15.26-0.9875 27.48 5.258 38.05 15.71 1.97 1.95 1.795 3.51 0.6152 5.652-3.112 5.652-6.029 11.41-9.117 17.08-1.952 3.582-3.947 7.227-0.7768 10.97 3.364 3.973 7.485 2.535 11.36 0.8178 3.453-1.529 6.905-3.125 10.14-5.053 3.118-1.857 4.091-0.8775 5.212 2.268 1.739 4.877 2.26 9.768 1.96 13.45z" fill="#176076"/>
<path d="m212.6 319.8c-3.505-19.29-16.2-30.49-33.35-37.68-3.127-1.311-6.409-2.85-9.694-3.051-5.438-0.3321-4.751-2.986-3.155-6.279 4.118-8.497 9.61-15.98 16.57-22.42 1.772-1.639 2.515-1.339 3.358 0.7131 5.488 13.36 14.12 24.98 20.98 37.57 7.296 13.38 11.94 27.61 12.8 42.89 0.3442 6.118-0.5197 6.516-6.483 4.347 0.1021-5.394-2.404-10.62-1.025-16.1z" fill="#176076"/>
<path d="m275.5 313.1c-0.1277-4.982 1.15-8.949 1.112-13.09-0.0667-7.221-0.228-14.33-3.164-21.09-1.123-2.585-0.5577-4.285 2.302-5.346 3.352-1.244 6.608-2.78 9.809-4.381 2.49-1.245 3.728-1.454 3.953 2.094 0.9816 15.49-2.608 29.41-14.01 41.81z" fill="#176076"/>
<path d="m368.7 241.6c0.5317 3.772 0.6121 7.594 0.1828 11.38-0.8789 7.749-2.054 15.11-4.27 22.28-0.4823 1.561-1.261 3.122-2.79 3.839-1.42 0.6658-3.517 1.731-4.464 1.173-1.851-1.09-0.0278-2.854 0.452-4.26 4.652-13.62 6.719-27.43 3.253-41.69-0.3733-1.537-0.2918-3.23-0.1649-4.831 0.1738-2.192 2.055-3.052 3.754-3.332 2.105-0.3467 1.95 1.968 2.145 3.079 0.7336 4.17 1.338 8.363 1.902 12.37z" fill="#176076"/>
<path d="m235.9 232.9c5.879-2.298 10.28-4.924 14.65-7.65 2.241-1.4 12.76 1.003 14.25 2.872 0.9159 1.148 0.2117 2.075-0.2806 2.937-2.576 4.51-5.217 8.984-7.868 13.45-0.9078 1.529-2.155 1.958-3.488 0.5527-4.695-4.95-10.17-8.858-17.26-12.16z" fill="#176076"/>
<path d="m384.4 210.6c8.35 2.643 9.553 8.984 10.85 15.09 2.089 9.829 3.328 19.68 1.399 29.79-0.9935 5.203-3.269 8.769-8.849 10.68 5.904-18.88 3.985-37-3.399-55.55z" fill="#176076"/>
<path d="m323.4 283.9c4.93-11.81 7.42-23.57 6.489-35.93-0.2023-2.688 2.138-3.302 3.935-3.582 2.57-0.4006 2.022 1.909 2.098 3.389 0.5364 10.49-0.7767 20.72-4.337 30.65-1.294 3.61-3.338 5.817-8.186 5.473z" fill="#176076"/>
<path d="m183.7 375.7c-6.553 8.09-13.48 13.74-20.74 18.92-3.29 2.348-6.264 0.4084-7.937-2.868-6.627-12.98-22.5-17.85-33.32-10.27l-6.495-7.577c9.742-3.247 16.49-12.72 18.33-21.72 10.79 21.29 26.05 31.23 50.17 23.52z" fill="#176076"/>
<circle cx="196.2" cy="122.4" r="16.78" fill="none" stroke="#edfcfc" stroke-miterlimit="10" stroke-width="6"/>
<circle cx="163.5" cy="80.37" r="10.82" fill="none" stroke="#edfcfc" stroke-miterlimit="10" stroke-width="6"/>
<circle cx="198.4" cy="38.01" r="7.036" fill="none" stroke="#edfcfc" stroke-miterlimit="10" stroke-width="6"/>
<circle cx="167.5" cy="166.3" r="10.82" fill="none" stroke="#edfcfc" stroke-miterlimit="10" stroke-width="6"/>
<path d="m136.6 309.8c11.18 0 22.37-0.4149 33.52 0.1119 12.15 0.5739 20.67 7.252 24.96 18.44 4.889 12.76 3.322 24.9-6.458 35.05-8.236 8.543-18.28 11.18-29.63 7.189-8.705-3.06-13.85-9.914-18.13-17.66-1.756-3.176-2.592-7.832-7.262-7.813-4.712 0.0197-5.276 4.746-7.081 7.914-0.2665 0.4678-0.4608 0.9763-0.6973 1.462-4.93 10.12-11.88 17.15-24.25 16.1-10.32-0.8811-19.8-9.149-23.41-20.5-5.024-15.81 1.952-31.86 16.55-38.39 4.104-1.834 8.394-1.905 12.7-1.942 9.733-0.0859 19.47-0.027 29.2-0.027v0.0687z" fill="#f9fdfd"/>
<path d="m225.6 334c0.126-23.71-9.649-43.97-22.12-63.25-6.476-10.02-12.78-20.08-14.03-32.34-0.7319-7.186 1.223-13.53 6.21-18.86 1.546-1.65 3.344-2.358 5.179-0.644 1.701 1.589 2.674 3.613 0.6502 5.629-5.845 5.824-4.981 12.74-3.187 19.7 2.377 9.225 7.955 16.86 12.93 24.75 10.65 16.9 19.05 34.66 21.38 54.79 4.61 39.9-17.41 76.09-56.46 84.21-2.81 0.5843-5.7 0.8189-8.564 1.095-2.352 0.2265-4.763 0.6382-4.923-3.078-0.1484-3.451 1.523-4.116 4.553-4.373 19.89-1.688 35.58-10.86 46.85-27.28 8.302-12.1 11.62-25.78 11.54-40.35z" fill="#f8fdfd"/>
<path d="m142.2 264.9c0.2918-23.62 14.76-40.91 36.4-44.97 3.105-0.5832 4.675 0.2053 5.981 2.846 1.113 2.251 0.5008 3.266-1.818 3.757-2.455 0.5199-4.944 0.9983-7.306 1.817-19.05 6.605-29.12 24.47-25.42 44.95 0.3364 1.86 2.271 4.107-1.904 4.43-2.894 0.2245-4.626 0.5128-4.984-3.245-0.3394-3.571-1.052-7.109-0.9528-9.583z" fill="#f7fcfd"/>
<path d="m311 132.5c-7.876-0.7096-14.7 1.491-21.14 6.266-10.53 7.814-21.48 15.07-32.29 22.52-2.202 1.517-4.294 3.282-6.995 3.93-1.453-0.9367-2.856-1.969-4.375-2.787-1.828-0.9849-0.5978-1.851-0.0417-2.781 13.33-9.028 26.62-18.13 40.02-27.06 8.87-5.912 16.65-5.82 24.82-0.0848z" fill="#f6fcfc"/>
<path d="m237.5 174.8c-4.24 3.029-8.376 6.218-12.74 9.053-7.705 5.002-12.6 11.67-13.26 21.03-0.0982 1.384-0.3613 2.497-2.038 2.555-2.943-1.119-3.148-3.764-3.165-6.248-0.052-7.331 2.042-13.88 8.067-18.53 4.684-3.618 9.554-7 14.4-10.4 3.884-2.722 6.088 0.7655 8.733 2.538z" fill="#f3fcfc"/>
<path d="m101.7 377c-1.083 2.576-1.956 4.509-2.716 6.486-1.905 4.954-1.15 9.427 3.582 12.15 4.144 2.388 1.541 5.759 1.01 7.957-0.4269 1.767-3.345-0.3777-4.846-1.318-8.153-5.107-10.7-16.47-5.508-24.66 2.471-3.899 5.314 0.1549 8.479-0.6188z" fill="#f5fbfb"/>
<path d="m212.6 319.8c0.9828 5.326 3.512 10.55 1.024 16.1-2.92 1.885-5.842 3.771-9.335 6.026-0.3128-4.957-0.475-9.209-2.166-13.14-0.7453-1.731 0.0762-2.62 1.431-3.435 3.031-1.824 6.032-3.7 9.045-5.554z" fill="#f3f9f9"/>
<path d="m190 340.9c-5e-4 11.25-6.302 20.12-16.2 22.81-9.561 2.596-18.69-1.507-24.59-11.17-1.683-2.754-2.965-5.758-4.708-8.469-5.905-9.183-16.84-8.836-22.15 0.6615-1.048 1.876-1.856 3.886-2.79 5.827-4.437 9.219-9.748 13.07-17.05 12.39-8.118-0.7638-14.88-6.791-17.24-15.68-3.88-14.59 4.05-30.47 22.46-29.91 19.79 0.5986 39.62 0.0943 59.43 0.228 13.62 0.0919 22.85 9.645 22.85 23.31z" fill="#083850"/>
</g>
</svg>
